# xmcd
#
# Track frame offsets:
# 150
# 28212
# 43410
# 62732
# 81153
# 97543
# 116999
# 130348
# 145017
# 159259
# 182913
# 205296
# 229165
#
# Disc length: 3459 seconds
#
# Revision: 0
# Processed by: cddbd v1.5.1PL0 Copyright (c) Steve Scherf et al.
# Submitted via: Audion 3.0.2 (http://www.panic.com/audion/)
#
DISCID=b50d810d
DTITLE=Chris Yeaton - Kikaha Malie
DYEAR=1900
DGENRE=
TTITLE0=Kikaha Malie
TTITLE1=A Winter's Shade Of Orange
TTITLE2=Mana 'Olana
TTITLE3=Sliding Doors
TTITLE4=Moe Uhane
TTITLE5=Leo Mele Hoa Pili
TTITLE6=Old Timer's Hula
TTITLE7=Mele La'au
TTITLE8='Opihi Moemoe
TTITLE9=Erika's Mele
TTITLE10=Skyward Granite
TTITLE11=From Paris to Good-bye
TTITLE12=Ku'u Home 'O Kahalu'u
EXTD=
EXTT0=
EXTT1=
EXTT2=
EXTT3=
EXTT4=
EXTT5=
EXTT6=
EXTT7=
EXTT8=
EXTT9=
EXTT10=
EXTT11=
EXTT12=
PLAYORDER=
